<svg viewBox="0 0 512 512" xmlns="http://www.w3.org/2000/svg">
  <rect width="512" height="512" fill="#00ff88"/>
  <path d="M 100 80 A 200 200 0 0 1 412 200 L 350 200 A 138 138 0 0 0 162 142 Z M 412 312 A 200 200 0 0 1 100 432 L 162 370 A 138 138 0 0 0 350 312 Z M 256 190 A 66 66 0 1 1 256 322 A 66 66 0 1 1 256 190 Z M 80 200 L 80 312 A 200 200 0 0 0 200 432 L 200 370 A 138 138 0 0 1 142 312 L 142 200 Z M 432 200 L 432 312 L 370 312 A 138 138 0 0 1 312 370 L 312 432 A 200 200 0 0 0 432 312 L 432 200 Z" fill="#333333"/>
</svg>